<?xml version="1.0" standalone="no"?>
<!DOCTYPE svg PUBLIC "-//W3C//DTD SVG 20010904//EN"
 "http://www.w3.org/TR/2001/REC-SVG-20010904/DTD/svg10.dtd">
<svg version="1.0" xmlns="http://www.w3.org/2000/svg"
 viewBox="0 0 350 350"
 preserveAspectRatio="xMidYMid meet"  >

<g transform="translate(0.000000,350.000000) scale(0.100000,-0.100000)"
stroke="none" fill="currentcolor">
<!--logo -->
<path fill="currentcolor"  d="M1310 1989 c0 -131 3 -188 11 -184 5 4 36 10 67 15 152 21 322 -54
398 -175 l29 -45 83 0 c45 0 82 3 82 6 0 3 -16 37 -36 75 -24 46 -60 91 -108
136 -98 93 -173 129 -332 159 -12 2 -57 47 -103 104 -45 55 -84 100 -87 100
-2 0 -4 -86 -4 -191z"/>
<path fill="currentcolor" d="M915 1188 c4 -13 17 -41 30 -63 84 -145 221 -245 384 -279 41 -8 79
-21 86 -28 7 -7 47 -55 89 -106 l76 -93 0 195 0 194 -37 -10 c-21 -6 -76 -8
-123 -6 -133 6 -253 71 -317 173 l-28 44 -83 1 c-82 0 -83 0 -77 -22z"/>
<path fill="currentcolor" d="M1546 1654 c-24 -23 -24 -445 0 -468 21 -21 57 -20 77 2 15 16 17 48
17 234 0 195 -2 216 -18 231 -23 21 -56 22 -76 1z"/>
<path fill="currentcolor" d="M1851 1508 c14 -50 11 -168 -6 -225 -22 -75 -88 -168 -151 -211 l-53
-37 -1 -82 c0 -46 3 -83 6 -83 3 0 37 16 75 36 83 44 186 148 228 232 33 66
61 154 61 194 0 23 17 42 105 114 58 48 105 88 105 90 0 2 -85 4 -189 4 l-190
0 10 -32z"/>
<path fill="currentcolor" d="M1247 1652 c-15 -16 -17 -45 -17 -228 0 -233 5 -254 60 -254 49 0 60
28 60 159 l0 115 73 -98 72 -97 3 92 3 92 -88 116 c-75 99 -93 116 -119 119
-20 2 -36 -3 -47 -16z"/>
<path fill="currentcolor" d="M1201 1925 c-59 -26 -158 -103 -200 -156 -57 -71 -98 -160 -117 -249
-8 -41 -18 -78 -22 -82 -4 -3 -51 -43 -106 -87 l-98 -81 196 0 c127 0 195 4
191 10 -16 26 -24 128 -14 189 18 116 97 240 183 286 l36 20 0 82 c0 46 -3 83
-7 83 -5 -1 -23 -7 -42 -15z"/>
</g>
</svg>